<mxfile host="app.diagrams.net" modified="2023-06-03T09:41:10.393Z" agent="Mozilla/5.0 (Macintosh; Intel Mac OS X 10_15_7) AppleWebKit/537.36 (KHTML, like Gecko) Chrome/113.0.0.0 Safari/537.36" etag="yrvLhbJAvu-ue0FtukNK" version="21.2.0" type="github">
  <diagram name="Page-1" id="2IYTkdBmXo5Yy6g6pNpi">
    <mxGraphModel dx="1193" dy="690" grid="1" gridSize="10" guides="1" tooltips="1" connect="1" arrows="1" fold="1" page="1" pageScale="1" pageWidth="827" pageHeight="1169" math="0" shadow="0">
      <root>
        <mxCell id="0" />
        <mxCell id="1" parent="0" />
        <mxCell id="wfXk0g78WmAty0QRYQ_D-1" value="&lt;b&gt;PostMan&lt;/b&gt;" style="whiteSpace=wrap;html=1;aspect=fixed;fillColor=#e1d5e7;strokeColor=#9673a6;" vertex="1" parent="1">
          <mxGeometry x="30" y="205" width="70" height="70" as="geometry" />
        </mxCell>
        <mxCell id="wfXk0g78WmAty0QRYQ_D-2" value="" style="shape=flexArrow;endArrow=classic;startArrow=classic;html=1;rounded=0;" edge="1" parent="1">
          <mxGeometry width="100" height="100" relative="1" as="geometry">
            <mxPoint x="100" y="239.5" as="sourcePoint" />
            <mxPoint x="190" y="240" as="targetPoint" />
          </mxGeometry>
        </mxCell>
        <mxCell id="wfXk0g78WmAty0QRYQ_D-4" value="&lt;b&gt;Controller&lt;br&gt;Layer&lt;/b&gt;" style="whiteSpace=wrap;html=1;aspect=fixed;fillColor=#fa6800;fontColor=#000000;strokeColor=#C73500;" vertex="1" parent="1">
          <mxGeometry x="190" y="190" width="100" height="100" as="geometry" />
        </mxCell>
        <mxCell id="wfXk0g78WmAty0QRYQ_D-5" value="&lt;b&gt;Service&lt;br&gt;Layer&lt;/b&gt;" style="whiteSpace=wrap;html=1;aspect=fixed;fillColor=#fa6800;fontColor=#000000;strokeColor=#C73500;" vertex="1" parent="1">
          <mxGeometry x="380" y="190" width="100" height="100" as="geometry" />
        </mxCell>
        <mxCell id="wfXk0g78WmAty0QRYQ_D-6" value="&lt;b&gt;Repository&lt;br&gt;Layer&lt;/b&gt;" style="whiteSpace=wrap;html=1;aspect=fixed;fillColor=#fa6800;fontColor=#000000;strokeColor=#C73500;" vertex="1" parent="1">
          <mxGeometry x="580" y="190" width="100" height="100" as="geometry" />
        </mxCell>
        <mxCell id="wfXk0g78WmAty0QRYQ_D-7" value="" style="shape=flexArrow;endArrow=classic;startArrow=classic;html=1;rounded=0;" edge="1" parent="1">
          <mxGeometry width="100" height="100" relative="1" as="geometry">
            <mxPoint x="290" y="239.5" as="sourcePoint" />
            <mxPoint x="380" y="240" as="targetPoint" />
          </mxGeometry>
        </mxCell>
        <mxCell id="wfXk0g78WmAty0QRYQ_D-10" value="" style="shape=flexArrow;endArrow=classic;startArrow=classic;html=1;rounded=0;" edge="1" parent="1">
          <mxGeometry width="100" height="100" relative="1" as="geometry">
            <mxPoint x="480" y="239.38" as="sourcePoint" />
            <mxPoint x="580" y="239.38" as="targetPoint" />
          </mxGeometry>
        </mxCell>
        <mxCell id="wfXk0g78WmAty0QRYQ_D-11" value="&lt;b&gt;DB&lt;/b&gt;" style="shape=cylinder3;whiteSpace=wrap;html=1;boundedLbl=1;backgroundOutline=1;size=15;fillColor=#60a917;strokeColor=#2D7600;fontColor=#ffffff;" vertex="1" parent="1">
          <mxGeometry x="750" y="177.5" width="60" height="125" as="geometry" />
        </mxCell>
        <mxCell id="wfXk0g78WmAty0QRYQ_D-14" value="" style="shape=flexArrow;endArrow=classic;startArrow=classic;html=1;rounded=0;entryX=0;entryY=0.5;entryDx=0;entryDy=0;entryPerimeter=0;" edge="1" parent="1" target="wfXk0g78WmAty0QRYQ_D-11">
          <mxGeometry width="100" height="100" relative="1" as="geometry">
            <mxPoint x="680" y="239.37" as="sourcePoint" />
            <mxPoint x="740" y="240" as="targetPoint" />
          </mxGeometry>
        </mxCell>
      </root>
    </mxGraphModel>
  </diagram>
</mxfile>
